<svg width="256" height="256" version="1.1" viewBox="0 0 67.7333 67.7333" xmlns="http://www.w3.org/2000/svg">
 <g transform="translate(0 -229.267)">
  <g transform="translate(-10.2289 3.2204)">
   <g transform="rotate(-30 52.9453 256.404)">
    <path transform="matrix(.264583 0 0 .264583 0 229.267)" d="m208 40a0.5 0.5 0 0 0-0.5 0.5 0.5 0.5 0 0 0 0.5 0.5 11 11 0 0 1 11 11 11 11 0 0 1-11 11 11 11 0 0 1-7.76758-3.2207 0.5 0.5 0 0 0-6e-3 -0.0059 0.5 0.5 0 0 0-0.35351-0.146485 0.5 0.5 0 0 0-0.5 0.5 0.5 0.5 0 0 0 0.14648 0.353516 0.5 0.5 0 0 0 0.0371 0.0332 12 12 0 0 0 8.44351 3.48637 12 12 0 0 0 12-12 12 12 0 0 0-11.9492-11.998 0.5 0.5 0 0 0-0.05078-0.001953z" fill="#251b49" style="paint-order:normal"/>
    <circle cx="55.0333" cy="243.025" r=".264583" fill="#fea" style="paint-order:normal"/>
   </g>
  </g>
  <g transform="rotate(195 39.5552 245.063)">
   <path transform="matrix(.264583 0 0 .264583 0 229.267)" d="m208 40a0.5 0.5 0 0 0-0.5 0.5 0.5 0.5 0 0 0 0.5 0.5 11 11 0 0 1 11 11 11 11 0 0 1-11 11 11 11 0 0 1-7.76758-3.2207 0.5 0.5 0 0 0-6e-3 -0.0059 0.5 0.5 0 0 0-0.35351-0.146485 0.5 0.5 0 0 0-0.5 0.5 0.5 0.5 0 0 0 0.14648 0.353516 0.5 0.5 0 0 0 0.0371 0.0332 12 12 0 0 0 8.44351 3.48637 12 12 0 0 0 12-12 12 12 0 0 0-11.9492-11.998 0.5 0.5 0 0 0-0.05078-0.001953z" fill="#251b49" style="paint-order:normal"/>
   <circle cx="55.0333" cy="243.025" r=".264583" fill="#fea" style="paint-order:normal"/>
  </g>
 </g>
</svg>
