<svg width="256" height="256" version="1.1" viewBox="0 0 67.7333 67.7333" xmlns="http://www.w3.org/2000/svg">
 <g transform="translate(0 -229.267)">
  <g fill="#25214d">
   <circle cx="24.8708" cy="272.129" r=".529167" style="paint-order:normal"/>
   <circle cx="29.1042" cy="272.129" r=".529167" style="paint-order:normal"/>
   <circle cx="33.3375" cy="272.129" r=".529167" style="paint-order:normal"/>
   <circle cx="37.5708" cy="272.129" r=".529167" style="paint-order:normal"/>
   <circle cx="41.8042" cy="272.129" r=".529167" style="paint-order:normal"/>
   <circle cx="39.6875" cy="273.452" r=".529167" style="paint-order:normal"/>
   <circle cx="35.4542" cy="273.452" r=".529167" style="paint-order:normal"/>
   <circle cx="31.2208" cy="273.452" r=".529167" style="paint-order:normal"/>
   <circle cx="26.9875" cy="273.452" r=".529167" style="paint-order:normal"/>
   <circle cx="25.4" cy="275.04" r=".529167" style="paint-order:normal"/>
   <circle cx="29.6333" cy="275.04" r=".529167" style="paint-order:normal"/>
   <circle cx="33.8667" cy="275.04" r=".529167" style="paint-order:normal"/>
   <circle cx="38.1" cy="275.04" r=".529167" style="paint-order:normal"/>
  </g>
  <g fill="#5883a4">
   <circle cx="24.8708" cy="272.129" r=".529167" style="paint-order:normal"/>
   <circle cx="29.1042" cy="272.129" r=".529167" style="paint-order:normal"/>
   <circle cx="33.3375" cy="272.129" r=".529167" style="paint-order:normal"/>
   <circle cx="37.5708" cy="272.129" r=".529167" style="paint-order:normal"/>
   <circle cx="41.8042" cy="272.129" r=".529167" style="paint-order:normal"/>
   <circle cx="39.6875" cy="273.452" r=".529167" style="paint-order:normal"/>
   <circle cx="35.4542" cy="273.452" r=".529167" style="paint-order:normal"/>
   <circle cx="31.2208" cy="273.452" r=".529167" style="paint-order:normal"/>
   <circle cx="26.9875" cy="273.452" r=".529167" style="paint-order:normal"/>
   <circle cx="25.4" cy="275.04" r=".529167" style="paint-order:normal"/>
   <circle cx="29.6333" cy="275.04" r=".529167" style="paint-order:normal"/>
   <circle cx="33.8667" cy="275.04" r=".529167" style="paint-order:normal"/>
   <circle cx="38.1" cy="275.04" r=".529167" style="paint-order:normal"/>
  </g>
  <g fill="#3a5879">
   <circle cx="24.8708" cy="272.129" r=".529167" style="paint-order:normal"/>
   <circle cx="29.1042" cy="272.129" r=".529167" style="paint-order:normal"/>
   <circle cx="33.3375" cy="272.129" r=".529167" style="paint-order:normal"/>
   <circle cx="37.5708" cy="272.129" r=".529167" style="paint-order:normal"/>
   <circle cx="41.8042" cy="272.129" r=".529167" style="paint-order:normal"/>
   <circle cx="39.6875" cy="273.452" r=".529167" style="paint-order:normal"/>
   <circle cx="35.4542" cy="273.452" r=".529167" style="paint-order:normal"/>
   <circle cx="31.2208" cy="273.452" r=".529167" style="paint-order:normal"/>
   <circle cx="26.9875" cy="273.452" r=".529167" style="paint-order:normal"/>
   <circle cx="25.4" cy="275.04" r=".529167" style="paint-order:normal"/>
   <circle cx="29.6333" cy="275.04" r=".529167" style="paint-order:normal"/>
   <circle cx="33.8667" cy="275.04" r=".529167" style="paint-order:normal"/>
   <circle cx="38.1" cy="275.04" r=".529167" style="paint-order:normal"/>
  </g>
 </g>
</svg>
