<svg width="256" height="256" version="1.1" viewBox="0 0 67.7333 67.7333" xmlns="http://www.w3.org/2000/svg">
 <defs>
  <filter id="a" color-interpolation-filters="sRGB">
   <feFlood flood-color="rgb(255,255,255)" flood-opacity=".705882" result="flood"/>
   <feComposite in="flood" in2="SourceGraphic" operator="out" result="composite1"/>
   <feGaussianBlur in="composite1" result="blur" stdDeviation="3.8"/>
   <feOffset dx="-1" dy="-1.5" result="offset"/>
   <feComposite in="offset" in2="SourceGraphic" operator="atop" result="fbSourceGraphic"/>
   <feColorMatrix in="fbSourceGraphic" result="fbSourceGraphicAlpha" values="0 0 0 -1 0 0 0 0 -1 0 0 0 0 -1 0 0 0 0 1 0"/>
   <feFlood flood-color="rgb(255,255,255)" flood-opacity=".705882" in="fbSourceGraphic" result="flood"/>
   <feComposite in="flood" in2="fbSourceGraphic" operator="out" result="composite1"/>
   <feGaussianBlur in="composite1" result="blur" stdDeviation="3.8"/>
   <feOffset dx="-1" dy="-1.5" result="offset"/>
   <feComposite in="offset" in2="fbSourceGraphic" operator="atop" result="composite2"/>
  </filter>
 </defs>
 <g transform="translate(0 -229.267)">
  <path d="m40.4812 276.362a2.11667 3.70417 0 0 0-2.11667 3.70416 2.11667 3.70417 0 0 0 2.11667 3.70417 2.11667 3.70417 0 0 0 0.08733-5e-3 6.08542 3.70417 0 0 0 0.17725 5e-3 6.08542 3.70417 0 0 0 6.08542-3.70417 6.08542 3.70417 0 0 0-6.08542-3.70416 6.08542 3.70417 0 0 0-0.211873 5e-3 2.11667 3.70417 0 0 0-0.05271-5e-3zm0.671793 0.19533a2.11667 3.70417 0 0 1 0.01344 8e-3 2.11667 3.70417 0 0 0-0.01344-8e-3zm0.384473 0.30283a2.11667 3.70417 0 0 1 0.01499 0.016 2.11667 3.70417 0 0 0-0.01499-0.016zm0.342098 0.42995a2.11667 3.70417 0 0 1 0.01809 0.0294 2.11667 3.70417 0 0 0-0.01809-0.0294zm0.148828 0.25218a2.11667 3.70417 0 0 1 0.02532 0.0506 2.11667 3.70417 0 0 0-0.02532-0.0506zm0.13901 0.28939a2.11667 3.70417 0 0 1 0.01344 0.0331 2.11667 3.70417 0 0 0-0.01344-0.0331zm0.116788 0.2992a2.11667 3.70417 0 0 1 0.02222 0.0693 2.11667 3.70417 0 0 0-0.02222-0.0693zm0.0987 0.31471a2.11667 3.70417 0 0 1 0.02584 0.10129 2.11667 3.70417 0 0 0-0.02584-0.10129zm0.08372 0.34262a2.11667 3.70417 0 0 1 0.02067 0.10903 2.11667 3.70417 0 0 0-0.02067-0.10903zm0.06098 0.34158a2.11667 3.70417 0 0 1 0.02015 0.15709 2.11667 3.70417 0 0 0-0.02015-0.15709zm0.04289 0.36018a2.11667 3.70417 0 0 1 0.01137 0.15917 2.11667 3.70417 0 0 0-0.01137-0.15917zm0.02325 0.37466a2.11667 3.70417 0 0 1 0.0041 0.20153 2.11667 3.70417 0 0 0-0.0041-0.20153z" fill="#251b49" style="paint-order:normal"/>
  <path transform="matrix(.264583 0 0 .264583 0 229.267)" d="m81 178a8 14 0 0 0-8 14 8 14 0 0 0 8 14 8 14 0 0 0 0.330078-0.01953 23 14 0 0 0 0.669922 0.01953 23 14 0 0 0 23-14 23 14 0 0 0-23-14 23 14 0 0 0-0.800781 0.01758 8 14 0 0 0-0.199219-0.01758zm2.53906 0.73828a8 14 0 0 1 0.050782 0.03125 8 14 0 0 0-0.050782-0.03125zm1.45313 1.14453a8 14 0 0 1 0.05664 0.06055 8 14 0 0 0-0.05664-0.06055zm1.29297 1.625a8 14 0 0 1 0.06836 0.11133 8 14 0 0 0-0.06836-0.11133zm0.5625 0.95313a8 14 0 0 1 0.095703 0.1914 8 14 0 0 0-0.095703-0.1914zm0.525391 1.09375a8 14 0 0 1 0.050781 0.125 8 14 0 0 0-0.050781-0.125zm0.441406 1.13086a8 14 0 0 1 0.083985 0.26172 8 14 0 0 0-0.083985-0.26172zm0.373047 1.18945a8 14 0 0 1 0.097656 0.38281 8 14 0 0 0-0.097656-0.38281zm0.316406 1.29492a8 14 0 0 1 0.078125 0.41211 8 14 0 0 0-0.078125-0.41211zm0.230469 1.29102a8 14 0 0 1 0.076172 0.59375 8 14 0 0 0-0.076172-0.59375zm0.162109 1.36133a8 14 0 0 1 0.042969 0.60156 8 14 0 0 0-0.042969-0.60156zm0.087891 1.41601a8 14 0 0 1 0.015625 0.76172 8 14 0 0 0-0.015625-0.76172z" fill="#251b49" style="paint-order:normal"/>
  <path transform="matrix(.264583 0 0 .264583 0 229.267)" d="m99 90a18 18 0 0 0-17.9648 17h-14.0352v46a62 51 0 0 0 62 51 62 51 0 0 0 62-51v-16-29-1h-0.05078a18 18 0 0 0-17.9492-17h-74z" fill="#251838" style="paint-order:normal"/>
  <path transform="matrix(.264583 0 0 .264583 0 229.267)" d="m99 92a16 16 0 0 0-15.9629 15h-14.0371v46a60 49 0 0 0 60 49 60 49 0 0 0 60-49v-16-29-1h-0.05078a16 16 0 0 0-15.9492-15h-74z" fill="#547799" style="paint-order:normal"/>
  <path transform="matrix(.264583 0 0 .264583 0 229.267)" d="m117.26 53.5059a5.5 5.5 0 0 0-3.00977 0.730469 5.5 5.5 0 0 0-2.01367 7.51367 5.5 5.5 0 0 0 6.10742 2.57617l14.8223 25.6738 0.28515 0.494141 7.71485 13.3613 2.59765-1.5-7.71484-13.3613-0.28516-0.494141-14.8203-25.6699a5.5 5.5 0 0 0 0.82031-6.58008 5.5 5.5 0 0 0-4.5039-2.74414z" fill="#170f24" style="paint-order:normal"/>
  <path transform="matrix(.264583 0 0 .264583 0 229.267)" d="m91.0488 46.5a5.5 5.5 0 0 0-1.47266 0.1875 5.5 5.5 0 0 0-3.88867 6.73633 5.5 5.5 0 0 0 5.23242 4.07031l7.81836 29.1836 4.14258 15.4551 2.89648-0.77539-4.14062-15.4551-7.81836-29.1816a5.5 5.5 0 0 0 2.49414-6.14453 5.5 5.5 0 0 0-5.26367-4.07617z" fill="#251838" style="paint-order:normal"/>
  <path d="m38.563 245.734a1.45521 1.45521 0 0 0-1.98785 0.53265 1.45521 1.45521 0 0 0 0.217364 1.74018l-3.99718 6.92331 0.687408 0.39687 3.99666-6.9224a1.45521 1.45521 0 0 0 1.61624-0.68275 1.45521 1.45521 0 0 0-0.532642-1.98786z" fill="#251838" style="paint-order:normal"/>
  <ellipse cx="32.2792" cy="269.483" rx="13.4938" ry="10.8479" fill="#517298" style="paint-order:normal"/>
  <ellipse cx="31.4854" cy="269.219" rx="12.7" ry="10.5833" fill="#97b3d0" style="paint-order:normal"/>
  <path transform="matrix(.264583 0 0 .264583 0 229.267)" d="m85 90a18 18 0 0 0-18 18v29a18 18 0 0 0 18 18h74a18 18 0 0 0 18-18v-29a18 18 0 0 0-18-18h-74z" fill="#251b49" style="paint-order:normal"/>
  <path d="m22.4896 253.608a4.23333 4.23333 0 0 0-4.23333 4.23334v7.67291a4.23333 4.23333 0 0 0 4.23333 4.23334h19.5792a4.23333 4.23333 0 0 0 4.23333-4.23334v-7.67291a4.23333 4.23333 0 0 0-4.23333-4.23334z" fill="#d8eefc" filter="url(#a)" style="paint-order:normal"/>
  <ellipse cx="21.4312" cy="280.067" rx="2.11667" ry="3.70417" fill="#251b49" style="paint-order:normal"/>
  <ellipse cx="21.9604" cy="280.067" rx="2.11667" ry="3.43958" fill="#d8eefc" style="paint-order:normal"/>
  <ellipse cx="22.4896" cy="280.199" rx="2.11667" ry="3.30729" fill="#251b49" style="paint-order:normal"/>
  <ellipse cx="40.4813" cy="280.067" rx="2.11667" ry="3.70417" fill="#251b49" style="paint-order:normal"/>
  <ellipse cx="41.0104" cy="280.067" rx="2.11667" ry="3.43958" fill="#d8eefc" style="paint-order:normal"/>
  <ellipse cx="41.5396" cy="280.199" rx="2.11667" ry="3.30729" fill="#251b49" style="paint-order:normal"/>
  <g fill="#c0d4e5">
   <circle transform="rotate(-15)" cx="-39.6428" cy="240.976" r=".926042" style="paint-order:normal"/>
   <circle transform="rotate(-30)" cx="-95.6296" cy="227.548" r=".926042" style="paint-order:normal"/>
   <circle transform="rotate(30)" cx="156.263" cy="194.985" r=".926042" style="paint-order:normal"/>
  </g>
  <g transform="translate(64.8229 2.11667)">
   <circle cx="-25.9292" cy="258.371" r="3.70417" fill="#251944" style="paint-order:normal"/>
   <circle cx="-27.3844" cy="257.471" r=".661458" fill="#567ea0" style="paint-order:normal"/>
   <g fill="#fff">
    <circle cx="-24.474" cy="257.18" r=".661458" style="paint-order:normal"/>
    <circle cx="-24.2094" cy="259.826" r=".396876" style="paint-order:normal"/>
    <path d="m-23.535 256.373a0.132292 0.132292 0 0 0-0.132292 0.13229 0.132292 0.132292 0 0 0 0.04703 0.10129 2.51354 2.51354 0 0 1 0.866097 1.89601 2.51354 2.51354 0 0 1-2.51354 2.51354 2.51354 2.51354 0 0 1-0.117306-6e-3 2.51354 2.51354 0 0 1-0.0016 0 0.132292 0.132292 0 0 0-0.01343-5.2e-4 0.132292 0.132292 0 0 0-0.132292 0.13229 0.132292 0.132292 0 0 0 0.132292 0.13229 2.77812 2.77812 0 0 0 0.132292 7e-3 2.77812 2.77812 0 0 0 2.77812-2.77812 2.77812 2.77812 0 0 0-0.950331-2.08928 0.132292 0.132292 0 0 0-0.09508-0.0403z" style="paint-order:normal"/>
   </g>
  </g>
  <g transform="translate(61.6479 2.1164)">
   <path d="m-30.1625 262.604a0.529167 0.529167 0 0 0-0.529167 0.52917 0.529167 0.529167 0 0 0 0.0041 0.0599 1.85208 1.32291 0 0 0 1.84795 1.26297 1.85208 1.32291 0 0 0 1.8495-1.26969 1.85208 1.32291 0 0 0 0-5.1e-4 0.529167 0.529167 0 0 0 0.0026-0.0527 0.529167 0.529167 0 0 0-0.529167-0.52917z" fill="#251944" style="paint-order:normal"/>
   <path d="m-29.8979 262.869a0.264583 0.264583 0 0 0-0.264583 0.26459 0.264583 0.264583 0 0 0 0.0036 0.045 0.264583 0.264583 0 0 0 5.16e-4 2e-3 1.32292 0.79375 0 0 0 1.31878 0.74724 1.32292 0.79375 0 0 0 1.32137-0.7674 0.264583 0.264583 0 0 0 0.0016-0.0263 0.264583 0.264583 0 0 0-0.264583-0.26459z" fill="#aadae9" style="paint-order:normal"/>
  </g>
  <g transform="translate(51.0646 2.12367)">
   <circle cx="-25.9292" cy="258.371" r="3.70417" fill="#251944" style="paint-order:normal"/>
   <circle cx="-27.3844" cy="257.471" r=".661458" fill="#567ea0" style="paint-order:normal"/>
   <g fill="#fff">
    <circle cx="-24.474" cy="257.18" r=".661458" style="paint-order:normal"/>
    <circle cx="-24.2094" cy="259.826" r=".396876" style="paint-order:normal"/>
    <path d="m-23.535 256.373a0.132292 0.132292 0 0 0-0.132292 0.13229 0.132292 0.132292 0 0 0 0.04703 0.10129 2.51354 2.51354 0 0 1 0.866097 1.89601 2.51354 2.51354 0 0 1-2.51354 2.51354 2.51354 2.51354 0 0 1-0.117306-6e-3 2.51354 2.51354 0 0 1-0.0016 0 0.132292 0.132292 0 0 0-0.01343-5.2e-4 0.132292 0.132292 0 0 0-0.132292 0.13229 0.132292 0.132292 0 0 0 0.132292 0.13229 2.77812 2.77812 0 0 0 0.132292 7e-3 2.77812 2.77812 0 0 0 2.77812-2.77812 2.77812 2.77812 0 0 0-0.950331-2.08928 0.132292 0.132292 0 0 0-0.09508-0.0403z" style="paint-order:normal"/>
   </g>
  </g>
  <ellipse cx="22.4896" cy="280.199" rx="1.32292" ry="2.51354" fill="#72b1cf" style="paint-order:normal"/>
  <ellipse cx="22.225" cy="280.331" rx="1.05833" ry="1.85207" fill="#8fe3ef" style="paint-order:normal"/>
  <ellipse cx="41.5396" cy="280.199" rx="1.32292" ry="2.51354" fill="#72b1cf" style="paint-order:normal"/>
  <ellipse cx="41.275" cy="280.331" rx="1.05833" ry="1.85207" fill="#8fe3ef" style="paint-order:normal"/>
  <g fill="#25214d">
   <circle cx="24.8708" cy="272.129" r=".529167" style="paint-order:normal"/>
   <circle cx="29.1042" cy="272.129" r=".529167" style="paint-order:normal"/>
   <circle cx="33.3375" cy="272.129" r=".529167" style="paint-order:normal"/>
   <circle cx="37.5708" cy="272.129" r=".529167" style="paint-order:normal"/>
   <circle cx="41.8042" cy="272.129" r=".529167" style="paint-order:normal"/>
   <circle cx="39.6875" cy="273.452" r=".529167" style="paint-order:normal"/>
   <circle cx="35.4542" cy="273.452" r=".529167" style="paint-order:normal"/>
   <circle cx="31.2208" cy="273.452" r=".529167" style="paint-order:normal"/>
   <circle cx="26.9875" cy="273.452" r=".529167" style="paint-order:normal"/>
   <circle cx="25.4" cy="275.04" r=".529167" style="paint-order:normal"/>
   <circle cx="29.6333" cy="275.04" r=".529167" style="paint-order:normal"/>
   <circle cx="33.8667" cy="275.04" r=".529167" style="paint-order:normal"/>
   <circle cx="38.1" cy="275.04" r=".529167" style="paint-order:normal"/>
  </g>
 </g>
</svg>
