<svg width="16" height="16" version="1.1" viewBox="0 0 4.23333 4.23333" xmlns="http://www.w3.org/2000/svg">
 <g transform="translate(0 -292.767)">
  <ellipse cx=".926042" cy="296.206" rx=".926042" ry=".79375" fill="#d40000" style="paint-order:normal"/>
  <ellipse cx=".926042" cy="296.206" rx=".661458" ry=".529167" fill="#800000" style="paint-order:normal"/>
  <path d="m3.04271 295.677a0.661458 0.661458 0 0 0-0.661458 0.66146 0.661458 0.661458 0 0 0 0.661458 0.66146 0.661458 0.661458 0 0 0 0.661458-0.66146 0.661458 0.661458 0 0 0-0.661458-0.66146zm0 0.26459a0.396875 0.396875 0 0 1 0.396875 0.39687 0.396875 0.396875 0 0 1-0.396875 0.39688 0.396875 0.396875 0 0 1-0.396875-0.39688 0.396875 0.396875 0 0 1 0.396875-0.39687z" fill="#5fbcd3" style="paint-order:normal"/>
  <circle cx="3.30729" cy="296.074" r=".132292" fill="#fff" style="paint-order:normal"/>
  <path d="m0.264583 293.428a0.661458 0.661458 0 0 0 0.66146 0.66146 0.661458 0.661458 0 0 0 0.66146-0.66146 0.661458 0.661458 0 0 0-0.66146-0.66146 0.661458 0.661458 0 0 0-0.66146 0.66146zm0.26458 0a0.396875 0.396875 0 0 1 0.39688-0.39688 0.396875 0.396875 0 0 1 0.39687 0.39688 0.396875 0.396875 0 0 1-0.39687 0.39687 0.396875 0.396875 0 0 1-0.39688-0.39687z" fill="#5fbcd3" style="paint-order:normal"/>
  <circle transform="rotate(-90)" cx="-293.164" cy=".661449" r=".132292" fill="#fff" style="paint-order:normal"/>
  <path d="m2.07776 295.39a0.661458 0.661458 0 0 0 0.81012-0.46772 0.661458 0.661458 0 0 0-0.467723-0.81012 0.661458 0.661458 0 0 0-0.81012 0.46772 0.661458 0.661458 0 0 0 0.467723 0.81012zm0.068478-0.25556a0.396875 0.396875 0 0 1-0.280636-0.48608 0.396875 0.396875 0 0 1 0.486074-0.28063 0.396875 0.396875 0 0 1 0.28063 0.48607 0.396875 0.396875 0 0 1-0.486067 0.28064z" fill="#5fbcd3" style="paint-order:normal"/>
  <circle transform="rotate(195)" cx="-78.1949" cy="-284.39" r=".132292" fill="#fff" style="paint-order:normal"/>
  <ellipse cx="3.30729" cy="293.56" rx=".926042" ry=".79375" fill="#d40000" style="paint-order:normal"/>
  <ellipse cx="3.30729" cy="293.56" rx=".661458" ry=".529167" fill="#800000" style="paint-order:normal"/>
 </g>
</svg>
