<svg width="16" height="16" version="1.1" viewBox="0 0 4.23333 4.23333" xmlns="http://www.w3.org/2000/svg">
 <g transform="translate(0 -292.767)">
  <path d="m1.60547 293.881-0.376953 1.13476h-0.964844v0.26368h1.1543l0.150391-0.45313 0.242188 0.96485 0.28125-0.5625 0.265625 0.79296 0.371094-0.74218h1.24023v-0.26368h-1.4043l-0.158203 0.31836-0.265625-0.79492-0.246094 0.49414zm-0.15026-0.43572c-0.277451 0-0.557417 0.0887-0.753959 0.28525-0.196546 0.19655-0.287321 0.47857-0.287321 0.75602 0 0.0892 0.0133385 0.1775 0.0325562 0.26458h0.271818c-0.0248573-0.0844-0.0408244-0.17346-0.0408244-0.26458 0-0.21866 0.0751064-0.43426 0.20929-0.56844 0.134186-0.13417 0.349798-0.20878 0.568441-0.20878 0.21865 0 0.434258 0.0746 0.568441 0.20878l0.093534 0.0935 0.093534-0.0935c0.134183-0.13417 0.347724-0.20878 0.566374-0.20878 0.21865 0 0.434263 0.0746 0.568441 0.20878 0.134188 0.13418 0.20929 0.34978 0.20929 0.56844 0 0.0911-0.015968 0.18023-0.040824 0.26458h0.273885c0.019217-0.0871 0.032556-0.17542 0.032556-0.26458 0-0.27745-0.09077-0.55949-0.287321-0.75602-0.196542-0.19656-0.47858-0.28525-0.756026-0.28525-0.242145 0-0.468786 0.10194-0.657841 0.25011-0.18954-0.1501-0.420356-0.25011-0.664042-0.25011zm-0.451652 2.0996 1.11363 1.11363 1.11363-1.11363h-0.375171l-0.738456 0.73845-0.73949-0.73845z" color="#000000" color-rendering="auto" dominant-baseline="auto" fill="#c5c565" image-rendering="auto" shape-rendering="auto" solid-color="#000000" style="font-feature-settings:normal;font-variant-alternates:normal;font-variant-caps:normal;font-variant-ligatures:normal;font-variant-numeric:normal;font-variant-position:normal;isolation:auto;mix-blend-mode:normal;shape-padding:0;text-decoration-color:#000000;text-decoration-line:none;text-decoration-style:solid;text-indent:0;text-orientation:mixed;text-transform:none;white-space:normal"/>
 </g>
</svg>
