<svg width="16" height="16" version="1.1" viewBox="0 0 4.23333 4.23333" xmlns="http://www.w3.org/2000/svg">
 <g transform="translate(0 -292.767)" shape-rendering="auto">
  <path transform="matrix(.264583 0 0 .264583 0 292.767)" d="m5.5 2.56445c-1.04863 0-2.10677 0.335221-2.84961 1.07812-0.742851 0.742866-1.08594 1.80879-1.08594 2.85742 0 1.04859 0.343085 2.1126 1.08594 2.85547l5.35156 5.35352 5.35156-5.35352c0.742873-0.742866 1.08594-1.80688 1.08594-2.85547 0-1.04863-0.343066-2.11459-1.08594-2.85742-0.742837-0.742866-1.80881-1.07812-2.85742-1.07812-0.915194 0-1.77179 0.385338-2.48633 0.945312-0.716372-0.567345-1.58875-0.945312-2.50977-0.945312z" color="#000000" color-rendering="auto" dominant-baseline="auto" fill="#d40000" image-rendering="auto" solid-color="#000000" style="font-feature-settings:normal;font-variant-alternates:normal;font-variant-caps:normal;font-variant-ligatures:normal;font-variant-numeric:normal;font-variant-position:normal;isolation:auto;mix-blend-mode:normal;shape-padding:0;text-decoration-color:#000000;text-decoration-line:none;text-decoration-style:solid;text-indent:0;text-orientation:mixed;text-transform:none;white-space:normal"/>
  <path transform="translate(1.84469e-7 8.80305e-6)" d="m1.60547 293.881-0.376953 1.13476h-0.964844v0.26368h1.1543l0.150391-0.45313 0.242188 0.96485 0.28125-0.5625 0.265625 0.79296 0.371094-0.74218h1.24023v-0.26368h-1.4043l-0.158203 0.31836-0.265625-0.79492-0.246094 0.49414z" color="#000000" color-rendering="auto" dominant-baseline="auto" fill="#ffffff" image-rendering="auto" solid-color="#000000" style="font-feature-settings:normal;font-variant-alternates:normal;font-variant-caps:normal;font-variant-ligatures:normal;font-variant-numeric:normal;font-variant-position:normal;isolation:auto;mix-blend-mode:normal;shape-padding:0;text-decoration-color:#000000;text-decoration-line:none;text-decoration-style:solid;text-indent:0;text-orientation:mixed;text-transform:none;white-space:normal"/>
 </g>
</svg>
