<svg width="16" height="16" version="1.1" viewBox="0 0 16 16" xml:space="preserve" xmlns="http://www.w3.org/2000/svg"><path d="m1 0c-0.26522 0-0.5195 0.10543-0.70703 0.29297-0.18754 0.18753-0.29297 0.44181-0.29297 0.70703v7c0 0.2652 0.10543 0.51943 0.29297 0.70703 0.18753 0.1875 0.44181 0.29297 0.70703 0.29297h3.3105l1-1h-4.3105v-7h11v0.31055l0.84375-0.8457c-0.039026-0.061516-0.084404-0.11955-0.13672-0.17188-0.1875-0.18754-0.44183-0.29297-0.70703-0.29297h-11zm1 2v1h1v-1h-1zm2 0v1h1v-1h-1zm2 0v1h1v-1h-1zm2 0v1h1v-1h-1zm2 0v1h0.31055l0.68945-0.68945v-0.31055h-1zm-8 2v1h2v-1h-2zm3 0v1h1v-1h-1zm2 0v1h1v-1h-1zm2 0v0.31055l0.31055-0.31055h-0.31055zm-7 2v1h1v-1h-1zm2 0v1h2.3105l1-1h-3.3105z" fill="#87ff7c"/><g transform="translate(1,1)" fill="none"><path d="m13.23 1h-1.46l-8.25 8.25-0.16003 0.21997-2.36 4.12 1.41 1.41 4.12-2.36 0.21997-0.16 8.25-8.25v-1.46zm-10.82 12.59 1.51-3 1.45 1.45zm3.83-2.06-1.77-1.77 8-8 1.77 1.77z" fill="#c5c5c5"/></g></svg>
