<svg width="16" height="16" version="1.1" viewBox="0 0 4.23333 4.23333" xmlns="http://www.w3.org/2000/svg">
 <g transform="translate(0 -292.767)">
  <path d="m3.76905 293.38 0.13229 0.22913-0.458283 0.26459-0.13229-0.22913zm0.13227 1.98436-0.132296 0.22913-0.458287-0.26459 0.132296-0.22914zm0.199707-1.00992-5.2e-6 0.26459h-0.529177l5.1e-6 -0.26459zm-1.98437-1.05832a1.19063 1.19063 0 0 0-1.19062 1.19062 1.19063 1.19063 0 0 0 0.443895 0.92605l-0.00223 1.3e-4a0.793744 0.767292 0 0 1 0.219613 0.52918l-6.7e-6 0.52917a0.264583 0.264583 0 0 0 0.264546 0.26461h0.529163a0.264583 0.264583 0 0 0 0.264558-0.26463l-2e-6 -0.52917a0.793744 0.767292 0 0 1 0.220141-0.52916l-0.00125-1.7e-4a1.19063 1.19063 0 0 0 0.442859-0.92605 1.19063 1.19063 0 0 0-1.19062-1.19062zm0.752407 0.65318a0.926042 0.926042 0 0 1 0.17364 0.53744 0.926042 0.926042 0 0 1-0.290942 0.67179l-3e-7 1e-3a1.05833 1.03188 0 0 0-0.045935 0.0408 1.05833 1.03188 0 0 0-0.172077 0.21239h-0.834062a1.05833 1.03188 0 0 0-0.187072-0.22581 0.926042 0.926042 0 0 1-0.147757-0.16333zm-1.01699 1.99265h0.529164l3.5e-6 0.26458-1.5e-6 0.26458-0.264586 1e-5 -0.264577-1e-5 -3.5e-6 -0.26458z" fill="#916f6f" style="paint-order:normal"/>
 </g>
</svg>
