<svg width="16" height="16" version="1.1" viewBox="0 0 4.23333 4.23333" xmlns="http://www.w3.org/2000/svg">
 <g transform="translate(0 -292.767)">
  <path transform="rotate(30)" d="m150.664 254.071h0.52917v0.26458h-0.52917zm-1.58752-1.32291v-0.52917h0.26458v0.52917zm0.74536 0.12885 0.26459-0.45827 0.22913 0.13229-0.26459 0.45827zm0.58103 0.48421 0.45828-0.26459 0.13229 0.22914-0.45827 0.26459zm-1.78941-0.18895a1.19063 1.19063 0 0 0-0.4358 1.62643 1.19063 1.19063 0 0 0 0.84745 0.58002l-2e-3 1e-3a0.767292 0.793744 60 0 1 0.45479 0.34846l0.26458 0.45827a0.264583 0.264583 0 0 0 0.36143 0.0968l0.45827-0.26458a0.264583 0.264583 0 0 0 0.0968-0.36142l-0.26458-0.45828a0.767292 0.793744 60 0 1-0.0739-0.56834l-1e-3 7.7e-4a1.19063 1.19063 0 0 0-0.0795-1.02341 1.19063 1.19063 0 0 0-1.62642-0.4358zm1.09378 2.42366 0.45827-0.26459 0.13229 0.22914 0.1323 0.22914-0.22914 0.13229-0.22913 0.13229-0.1323-0.22914z" fill="#ddb100" style="paint-order:normal"/>
  <path transform="matrix(.264583 0 0 .264583 0 292.767)" d="m8 3a4.5 4.5 0 0 0-4.5 4.5 4.5 4.5 0 0 0 1.67773 3.5h-0.00781a2.99998 2.9 0 0 1 0.830076 2v2a1 1 0 0 0 0.128906 0.486328l3.08008-12.3203a4.5 4.5 0 0 0-1.20898-0.166016zm-4.51311 7.6833-1.73203 0.999987-0.500013-0.866047 1.73203-0.999988zm-0.986988-2.68329h-2v-0.999987h2zm0.486894-2.81709-1.73203-0.999987 0.499994-0.866014 1.73203 0.999987zm1.83009-2.19618-0.999987-1.73203 0.866014-0.499994 0.999987 1.73203zm2.68309-0.98681v-2.00001h1v2.00001z" fill="#007acc"/>
 </g>
</svg>
