<svg width="16" height="16" version="1.1" viewBox="0 0 4.23333 4.23333" xmlns="http://www.w3.org/2000/svg">
 <g transform="translate(0 -292.767)">
  <path transform="matrix(.264583 0 0 .264583 0 292.767)" d="m4 4v11h4v-5h-2l2-2v-4h-4z" fill="#5a2ca0" style="paint-order:normal"/>
  <path transform="matrix(.264583 0 0 .264583 0 292.767)" d="m5.98047 1.20508a0.5 0.5 0 0 0-0.316406 0.132812l-0.0371094 0.0351563-3.62695 3.62695h8l-3.62695-3.62695-0.0136719-0.015625a0.5 0.5 0 0 0-0.0371094-0.0351563 0.5 0.5 0 0 0-0.322266-0.117188 0.5 0.5 0 0 0-0.0195312 0z" fill="#5a2ca0"/>
  <path d="m3.04271 293.031a0.396875 0.396875 0 0 0-0.396875 0.39687 0.396875 0.396875 0 0 0 0.039274 0.17054 0.132292 0.132292 0 0 0-0.039274 0.094 0.132292 0.132292 0 0 0 0.132292 0.13229 0.132292 0.132292 0 0 0 0.094051-0.0393 0.396875 0.396875 0 0 0 0.039791 0.0165 0.264583 0.264583 0 0 0-0.00155 0.0227 0.264583 0.264583 0 0 0 0.264583 0.26458 0.264583 0.264583 0 0 0 0.264583-0.26458 0.264583 0.264583 0 0 0-0.067179-0.1757 0.396875 0.396875 0 0 0 0.067179-0.22118 0.396875 0.396875 0 0 0-0.396875-0.39687z" fill="#b7c4c8" style="paint-order:normal"/>
  <path d="m3.175 295.148a0.529167 0.529167 0 0 0-0.529167 0.52917 0.529167 0.529167 0 0 0 0.106454 0.31729 0.264583 0.264583 0 0 0-0.106454 0.21187 0.264583 0.264583 0 0 0 0.264583 0.26459 0.264583 0.264583 0 0 0 0.264583-0.26459 0.529167 0.529167 0 0 0 0.317293-0.10645 0.264583 0.264583 0 0 0 0.211873 0.10645 0.264583 0.264583 0 0 0 0.264583-0.26458 0.264583 0.264583 0 0 0-0.264583-0.26458 0.529167 0.529167 0 0 0-0.529167-0.52917z" fill="#b7c4c8" style="paint-order:normal"/>
  <path d="m2.54899 294.98 0.264585-0.45828 0.229136 0.13229 0.396875-0.6874 0.458272 0.26458-0.758306 0.78426-0.229136-0.13229-0.493716 0.32597z" fill="#ddb100"/>
 </g>
</svg>
