<svg width="16" height="16" version="1.1" viewBox="0 0 4.23333 4.23333" xmlns="http://www.w3.org/2000/svg">
 <g transform="translate(0 -292.767)">
  <g fill="#000000" aria-label="ABC">
   <path d="m3.57053 295.95q-0.085783 0-0.158647-0.0253-0.072347-0.0253-0.12454-0.0754-0.052193-0.0501-0.081132-0.12506-0.028422-0.0749-0.028422-0.17312 0-0.0915 0.027388-0.16588 0.027389-0.0744 0.079582-0.12764 0.050126-0.0512 0.124024-0.0791 0.074414-0.0279 0.162264-0.0279 0.048576 0 0.087333 6e-3 0.039274 5e-3 0.072347 0.014 0.034623 0.01 0.062528 0.0222 0.028422 0.0119 0.049609 0.0222v0.18655h-0.022738q-0.014469-0.0124-0.03669-0.0294-0.021704-0.0171-0.049609-0.0336-0.028422-0.0165-0.061495-0.0279t-0.070797-0.0114q-0.041858 0-0.079582 0.0134-0.037724 0.0129-0.069763 0.0434-0.030489 0.0294-0.049609 0.078-0.018603 0.0486-0.018603 0.11782 0 0.0723 0.020154 0.12092 0.020671 0.0486 0.051676 0.0765 0.031523 0.0284 0.07028 0.0408 0.038757 0.0119 0.076481 0.0119 0.036173 0 0.071314-0.0108 0.035657-0.0109 0.065629-0.0295 0.025322-0.015 0.047026-0.032 0.021704-0.0171 0.035657-0.0295h0.020671v0.18397q-0.028939 0.0129-0.055294 0.0243t-0.055294 0.0196q-0.037724 0.0109-0.070797 0.0165-0.033073 6e-3 -0.09095 6e-3zm0.073277-1.32064q0 0.0558-0.022738 0.0997-0.022221 0.0439-0.061495 0.0729-0.045475 0.0341-0.100252 0.0486-0.05426 0.0145-0.137976 0.0145h-0.335896v-0.76946h0.29869q0.093018 0 0.135909 6e-3 0.043408 6e-3 0.085783 0.0274 0.043925 0.0222 0.065112 0.0599 0.021704 0.0372 0.021704 0.0853 0 0.0558-0.029456 0.0987-0.029456 0.0424-0.083199 0.0662v4e-3q0.075448 0.015 0.119373 0.062 0.044442 0.047 0.044442 0.12402zm-0.254248-0.31626q0-0.0191-0.00982-0.0382-0.0093-0.0191-0.03359-0.0284-0.021704-8e-3 -0.05426-9e-3 -0.032039-1e-3 -0.090434-1e-3h-0.018603v0.16278h0.031006q0.047026 0 0.080099-2e-3t0.052193-0.0103q0.026872-0.0119 0.03514-0.0305 0.00827-0.0191 0.00827-0.0439zm0.048576 0.31316q0-0.0367-0.014469-0.0563-0.013953-0.0202-0.048059-0.03-0.023254-7e-3 -0.064079-7e-3 -0.040824-5.2e-4 -0.085266-5.2e-4h-0.043408v0.19172h0.014469q0.083716 0 0.119889-5.1e-4 0.036174-5.2e-4 0.066663-0.0134 0.031006-0.0129 0.042375-0.0341 0.011886-0.0217 0.011886-0.0496zm0.00455-0.80125h-0.205158l-0.053227-0.15555h-0.285254l-0.053227 0.15555h-0.199988l0.28422-0.76946h0.22841zm-0.306441-0.29662-0.094568-0.27596-0.094568 0.27596zm-2.73937 1.48741a0.132292 0.132292 0 0 0-0.132292 0.13229 0.132292 0.132292 0 0 0 5.1676e-4 9e-3 1.32292 1.32292 0 0 0 1.19011 1.30535v0.27285h-0.264586a0.132292 0.132292 0 0 0-0.132292 0.13229 0.132292 0.132292 0 0 0 0.132292 0.13229h0.79375a0.132292 0.132292 0 0 0 0.132292-0.13199 0.132292 0.132292 0 0 0-0.132292-0.13229h-0.264583v-0.2713a1.32292 1.32292 0 0 0 1.19011-1.30276 0.132292 0.132292 0 0 0 5.168e-4 -0.0134 0.132292 0.132292 0 0 0-0.132292-0.13229 0.132292 0.132292 0 0 0-0.132292 0.13229 1.05833 1.05833 0 0 1-1.05833 1.05833 1.05833 1.05833 0 0 1-1.05833-1.05833 0.132292 0.132292 0 0 0-0.132292-0.13229zm1.19062-2.24896a0.79375 0.79375 0 0 0-0.79375 0.79375v1.5875a0.79375 0.79375 0 0 0 0.79375 0.79375 0.79375 0.79375 0 0 0 0.79375-0.79375v-1.5875a0.79375 0.79375 0 0 0-0.79375-0.79375zm0 0.26458a0.529167 0.529167 0 0 1 0.529167 0.52917v0.26458h-0.132292a0.132292 0.132292 0 0 0-0.132292 0.1323 0.132292 0.132292 0 0 0 0.132292 0.13229h0.132292v0.52916h-0.132292a0.132292 0.132292 0 0 0-0.132292 0.1323 0.132292 0.132292 0 0 0 0.132292 0.13229h0.132292v0.26458a0.529167 0.529167 0 0 1-0.529167 0.52917 0.529167 0.529167 0 0 1-0.529166-0.52917v-0.26458h0.132292a0.132292 0.132292 0 0 0 0.132292-0.13229 0.132292 0.132292 0 0 0-0.132292-0.1323h-0.132292v-0.52916h0.132292a0.132292 0.132292 0 0 0 0.132292-0.13229 0.132292 0.132292 0 0 0-0.132292-0.1323h-0.132292v-0.26458a0.529167 0.529167 0 0 1 0.529166-0.52917z" fill="#ff2a2a" stroke-width=".264583"/>
  </g>
 </g>
</svg>
